<svg width="60" height="58" viewBox="0 0 60 58" fill="none" xmlns="http://www.w3.org/2000/svg">
<path fill-rule="evenodd" clip-rule="evenodd" d="M30.0754 0.833374C14.0074 0.833374 0.984528 13.8563 0.984528 29.9242C0.984528 42.775 9.31745 53.6805 20.8791 57.5305C22.3345 57.793 22.8595 56.8975 22.8595 56.1275C22.8595 55.4363 22.8362 53.6046 22.8274 51.1809C14.7337 52.9367 13.0245 47.2784 13.0245 47.2784C11.7062 43.9184 9.79578 43.023 9.79578 43.023C7.15619 41.2175 9.99703 41.2584 9.99703 41.2584C12.9195 41.4625 14.4508 44.2567 14.4508 44.2567C17.0466 48.7017 21.2641 47.4184 22.9149 46.6746C23.1804 44.7934 23.9387 43.51 24.767 42.7838C18.3095 42.0517 11.5195 39.555 11.5195 28.4046C11.5195 25.2342 12.6541 22.6325 14.5062 20.6025C14.2116 19.8646 13.2054 16.9042 14.7949 12.9025C14.7949 12.9025 17.2362 12.118 22.7924 15.8805C25.1654 15.2349 27.6132 14.9054 30.0724 14.9005C32.5317 14.9044 34.9797 15.234 37.3524 15.8805C42.9116 12.115 45.3499 12.9025 45.3499 12.9025C46.9395 16.9042 45.942 19.8646 45.6387 20.6025C47.5054 22.6325 48.6254 25.2313 48.6254 28.4046C48.6254 39.5842 41.8295 42.04 35.3487 42.7605C36.3841 43.6588 37.3174 45.4321 37.3174 48.1446C37.3174 52.0355 37.2824 55.1738 37.2824 56.1275C37.2824 56.9063 37.8016 57.8105 39.2862 57.5246C50.842 53.6688 59.1662 42.7721 59.1662 29.9242C59.1662 13.8563 46.1433 0.833374 30.0754 0.833374Z" fill="#CCCCCC"/>
</svg>
