<svg width="46" height="46" viewBox="0 0 46 46" fill="none" xmlns="http://www.w3.org/2000/svg">
<path d="M6.35833 45.3835C9.86994 45.3835 12.7167 42.5368 12.7167 39.0252C12.7167 35.5136 9.86994 32.6669 6.35833 32.6669C2.84672 32.6669 0 35.5136 0 39.0252C0 42.5368 2.84672 45.3835 6.35833 45.3835Z" fill="#CCCCCC"/>
<path d="M0 0V8.25417C20.5042 8.25417 37.1292 24.8792 37.1292 45.3833H45.3833C45.3833 20.3292 25.0542 0 0 0V0ZM0 16.5083V24.7625C11.375 24.7625 20.6208 34.0083 20.6208 45.3833H28.875C28.875 29.4292 15.9542 16.5083 0 16.5083V16.5083Z" fill="#CCCCCC"/>
</svg>
