<svg width="59" height="48" viewBox="0 0 59 48" fill="none" xmlns="http://www.w3.org/2000/svg">
<path d="M52.2629 12.3247C52.3008 12.8351 52.3008 13.3426 52.3008 13.8501C52.3008 29.3813 40.4796 47.278 18.8758 47.278C12.22 47.278 6.03667 45.3501 0.833334 42.0018C1.77833 42.1097 2.68833 42.1476 3.67125 42.1476C8.95914 42.1604 14.0973 40.3922 18.2575 37.128C15.8058 37.0836 13.4292 36.2748 11.4594 34.8143C9.48971 33.3539 8.0252 31.3148 7.27042 28.9818C7.99667 29.0897 8.72583 29.1626 9.49 29.1626C10.5429 29.1626 11.6017 29.0168 12.5846 28.763C9.92388 28.2258 7.53138 26.7836 5.81389 24.6817C4.09639 22.5797 3.15994 19.9478 3.16375 17.2334V17.0876C4.73 17.9597 6.54708 18.5051 8.47208 18.578C6.85943 17.5064 5.5371 16.0522 4.62307 14.3453C3.70905 12.6384 3.23175 10.7317 3.23375 8.7955C3.23375 6.61384 3.81417 4.613 4.83208 2.86884C7.78415 6.50014 11.4661 9.47089 15.6393 11.5887C19.8126 13.7065 24.3841 14.924 29.0579 15.1626C28.8771 14.2876 28.7662 13.3805 28.7662 12.4705C28.7655 10.9275 29.0688 9.39942 29.659 7.9737C30.2491 6.54798 31.1145 5.25255 32.2055 4.16147C33.2966 3.07038 34.5921 2.20503 36.0178 1.6149C37.4435 1.02476 38.9716 0.721403 40.5146 0.722169C43.8979 0.722169 46.9517 2.13967 49.0983 4.43217C51.7285 3.92355 54.2507 2.9634 56.5533 1.59425C55.6766 4.30913 53.8401 6.61122 51.3879 8.06925C53.7206 7.80319 56.0004 7.18974 58.1517 6.24925C56.545 8.59162 54.554 10.6457 52.2629 12.3247Z" fill="#CCCCCC"/>
</svg>
